<svg xmlns="http://www.w3.org/2000/svg" viewBox="0 0 1280 640" role="img" aria-labelledby="knotrust-social-title">
  <title id="knotrust-social-title">KnoTrust — the portable, YOLO-proof, fully-audited control layer for MCP tool calls</title>
  <!--
    KnoTrust GitHub social-preview / OG card (1280x640).
    Dark surface (#0B0B10), the wordmark lockup in paper + gold, tagline set
    in a monospace face (SF Mono) — a deliberate contrast to the bold display
    wordmark, since KnoTrust is a CLI/stdio proxy and the mono nod to a
    terminal/audit-log is on-brand. A single oversized, low-opacity copy of
    the two-loop mark bleeds off the top-right corner for depth/texture; it
    carries no meaning on its own, it's just atmosphere.
  -->
  <rect width="1280" height="640" fill="#0B0B10"/>

  <!-- Background texture: oversized ghost of the mark, bleeding off-canvas -->
  <g transform="translate(722.0 -342.0) scale(1.7578)" opacity="0.38">
    <g stroke-linecap="round" fill="none" transform="rotate(32 256 256)">
      <path d="M 276.22 364.71 A 140 140 0 1 1 276.22 147.29" stroke="#1B1A22" stroke-width="70"/>
      <path d="M 235.78 147.29 A 140 140 0 1 1 235.78 364.71" stroke="#1B1A22" stroke-width="70"/>
    </g>
  </g>

  <!-- Lockup: mark + wordmark (dark-surface colors) -->
  <g transform="translate(140.00 128.15) scale(0.628141)">
    <g transform="translate(40 40) scale(0.585938)">
      <g stroke-linecap="round" fill="none" transform="rotate(32 256 256)">
        <path d="M 276.22 364.71 A 140 140 0 1 1 276.22 147.29" stroke="#F5F4F0" stroke-width="70"/>
        <path d="M 235.78 147.29 A 140 140 0 1 1 235.78 364.71" stroke="#E7A93A" stroke-width="70"/>
        <path d="M 226.73 121.46 A 140 140 0 0 1 281.79 152.06" stroke="#F5F4F0" stroke-width="70"/>
      </g>
    </g>
    <g transform="translate(377.44 295.91)">
      <path fill="#F5F4F0" d="M22.56-213.57L22.56 0L54.93 0L54.93-65.04L92.43-104.44L150.59 0L188.96 0L113.38-129.35L181.79-213.57L143.41-213.57L55.52-103.56L54.93-103.56L54.93-213.57 M212.74-152.05L212.74 0L243.36 0L243.36-90.53Q243.36-106.49 252-114.84Q260.49-123.34 273.68-123.34Q286.86-123.34 295.21-114.84Q303.71-106.49 303.71-90.53L303.71 0L334.32 0L334.32-101.07Q333.59-127.15 318.06-140.62Q302.39-153.96 283.49-153.96Q259.03-153.96 243.94-135.94L243.36-135.94L243.36-152.05 M370.40-76.17Q370.40-52.15 374.36-39.55Q378.46-26.95 386.96-17.72Q393.25-10.55 404.53-4.83Q415.67 1.46 433.10 1.76Q451.12 1.46 462.25-4.83Q468.25-7.47 472.06-11.13Q476.31-14.36 479.24-17.72Q488.32-26.95 492.13-39.55Q495.79-52.15 495.79-76.17Q495.79-100.20 492.13-113.09Q488.32-125.68 479.24-134.33Q473.23-141.94 462.25-147.95Q451.12-153.66 433.10-153.96Q415.67-153.66 404.53-147.95Q393.25-141.94 386.96-134.33Q378.46-125.68 374.36-113.09Q370.40-100.20 370.40-76.17M465.18-75.88Q465.18-60.35 463.71-53.03Q462.25-45.56 457.71-39.84Q454.34-35.45 447.75-32.08Q441.45-28.86 433.10-28.86Q425.33-28.86 418.74-32.08Q412.44-35.45 408.49-39.84Q404.53-45.56 402.78-53.03Q401.02-60.35 401.02-76.17Q401.02-92.14 402.78-99.61Q404.53-106.79 408.49-112.21Q412.44-117.33 418.74-120.26Q425.33-123.34 433.10-123.34Q441.45-123.34 447.75-120.26Q454.34-117.33 457.71-112.21Q462.25-106.79 463.71-99.61Q465.18-92.14 465.18-75.88 M570.84-184.72L570.84 0L603.36 0L603.36-184.72L661.80-184.72L661.80-213.57L512.39-213.57L512.39-184.72 M685.87-152.05L685.87 0L716.49 0L716.49-91.55Q716.78-108.25 726.16-115.72Q734.51-123.34 746.22-123.34Q756.63-123.34 766.29-115.72L788.56-142.24Q774.94-153.66 756.63-153.96Q732.16-153.96 717.07-135.94L716.49-135.94L716.49-152.05 M806.62-152.05L806.62-50.98Q806.91-25.20 823.47-12.01Q838.70 1.46 857.60 1.76Q881.91 1.76 897-16.26L897.59-16.26L897.59 0L928.20 0L928.20-152.05L897.59-152.05L897.59-61.52Q897.59-46.14 889.09-37.50Q880.74-28.86 867.56-28.86Q854.38-28.86 845.88-37.50Q837.24-46.14 837.24-61.52L837.24-152.05 M976.29-46.44L954.91-25.49Q984.64 1.76 1021.85 1.76Q1049.24 1.46 1066.82-10.84Q1084.55-22.85 1084.84-44.97Q1084.84-63.87 1075.03-76.17Q1064.48-88.77 1040.75-90.53L1015.55-92.43Q1004.42-93.60 1000.03-97.85Q995.19-101.66 995.48-106.79Q995.48-114.84 1001.49-119.97Q1007.20-125.10 1021.56-125.10Q1034.16-125.10 1043.82-121.44Q1053.64-117.33 1062.43-111.04L1081.32-133.15Q1070.19-142.82 1056.13-148.54Q1048.80-151.17 1040.46-152.64Q1032.11-153.96 1021.56-153.96Q997.24-153.96 981.42-142.24Q965.16-130.52 964.87-107.08Q965.16-87.60 977.47-76.76Q989.48-65.62 1008.67-63.87L1035.62-61.52Q1044.12-61.23 1049.24-57.86Q1054.22-54.64 1054.22-46.44Q1054.22-37.21 1045.88-32.08Q1037.53-26.95 1024.34-26.95Q994.90-26.95 976.29-46.44 M1121.51-198.34L1121.51-152.05L1106.27-152.05L1106.27-128.76L1121.51-128.76L1121.51-37.50Q1121.51-19.48 1132.05-9.96Q1142.31 0 1158.42 0L1174.39 0L1174.39-28.86L1162.96-28.86Q1151.83-28.56 1152.12-40.14L1152.12-128.76L1174.39-128.76L1174.39-152.05L1152.12-152.05L1152.12-198.34" />
    </g>
  </g>

  <!-- Tagline, set in a monospace face (audit-log / terminal register) -->
  <g fill="#9C9B97">
    <path transform="translate(207.87 451.15) scale(0.360000)" d="M27.59 0L34.23 0L34.23-64.40L55.91-64.40L55.91-70.46L5.91-70.46L5.91-64.40L27.59-64.40 M71.92-73.54L71.92 0L78.32 0L78.32-31.25Q78.32-38.57 82.69-43.14Q87.06-47.71 94.14-47.71Q100.78-47.71 103.96-43.99Q107.13-40.28 107.13-32.57L107.13 0L113.53 0L113.53-34.18Q113.53-43.55 108.98-48.51Q104.44-53.47 95.85-53.47Q89.75-53.47 85.28-50.78Q80.81-48.10 78.66-43.12L78.03-43.12L78.03-73.54 M155.08-47.80Q162.06-47.80 165.99-43.04Q169.92-38.28 169.92-29.88L139.84-29.88Q139.84-38.33 143.90-43.07Q147.95-47.80 155.08-47.80M176.17-12.99L169.82-12.99Q168.60-9.13 164.89-6.98Q161.18-4.83 155.81-4.83Q148.49-4.83 144.17-9.69Q139.84-14.55 139.84-22.80L139.84-24.61L176.42-24.61L176.42-28.76Q176.42-36.62 173.90-42.14Q171.39-47.66 166.63-50.56Q161.87-53.47 155.08-53.47Q148.58-53.47 143.70-50.61Q138.82-47.75 136.13-42.60Q133.45-37.45 133.45-30.52L133.45-22.85Q133.45-11.62 139.33-5.37Q145.21 0.88 155.81 0.88Q161.13 0.88 165.41-0.83Q169.68-2.54 172.49-5.66Q175.29-8.79 176.17-12.99  M280.52-53.47Q274.90-53.47 270.78-51.32Q266.65-49.17 264.36-45.02L263.48-45.02L263.48-52.59L257.37-52.59L257.37 17.82L263.77 17.82L263.77-7.76L264.65-7.76Q266.50-3.61 270.65-1.37Q274.80 0.88 280.52 0.88Q286.62 0.88 291.24-1.90Q295.85-4.69 298.44-9.69Q301.03-14.70 301.03-21.24L301.03-31.35Q301.03-37.94 298.44-42.92Q295.85-47.90 291.24-50.68Q286.62-53.47 280.52-53.47M279.10-47.71Q286.18-47.71 290.41-42.82Q294.63-37.94 294.63-29.79L294.63-22.75Q294.63-14.65 290.41-9.74Q286.18-4.83 279.10-4.83Q272.07-4.83 267.85-9.72Q263.62-14.60 263.62-22.75L263.62-29.79Q263.62-37.94 267.85-42.82Q272.07-47.71 279.10-47.71 M339.99 0.88Q346.78 0.88 351.78-1.98Q356.79-4.83 359.52-10.06Q362.26-15.28 362.26-22.36L362.26-30.18Q362.26-37.26 359.52-42.48Q356.79-47.71 351.78-50.56Q346.78-53.42 339.99-53.42Q333.20-53.42 328.20-50.56Q323.19-47.71 320.46-42.48Q317.72-37.26 317.72-30.18L317.72-22.36Q317.72-15.28 320.46-10.06Q323.19-4.83 328.20-1.98Q333.20 0.88 339.99 0.88M339.99-47.71Q347.31-47.71 351.59-42.80Q355.86-37.89 355.86-29.35L355.86-23.19Q355.86-14.65 351.59-9.74Q347.31-4.83 339.99-4.83Q332.67-4.83 328.39-9.74Q324.12-14.65 324.12-23.19L324.12-29.35Q324.12-37.89 328.39-42.80Q332.67-47.71 339.99-47.71 M399.32 0L399.32-23.63Q399.32-34.42 404.35-40.82Q409.38-47.22 417.87-47.22Q420.02-47.22 422.36-46.83Q424.71-46.44 426.51-45.75L426.51-52.73Q425.29-53.27 423.22-53.59Q421.14-53.91 418.85-53.91Q411.18-53.91 406.20-50.07Q401.22-46.24 399.85-39.21L399.17-39.21L399.17-52.59L381.01-52.59L381.01-47.41L392.92-47.41L392.92 0L399.32 0M382.08 0L416.02 0L416.02-5.18L382.08-5.18 M461.77-66.26L455.37-66.26L455.37-52.59L441.21-52.59L441.21-47.17L455.37-47.17L455.37-15.19Q455.37-10.01 457.47-6.57Q459.57-3.12 463.77-1.42Q467.97 0.29 474.27 0.29Q476.56 0.29 479.59 0.10Q482.62-0.10 483.79-0.29L483.79-5.76Q482.52-5.57 479.93-5.47Q477.34-5.37 474.61-5.37Q468.36-5.37 465.06-7.93Q461.77-10.50 461.77-15.38L461.77-47.17L483.79-47.17L483.79-52.59L461.77-52.59 M520.80 0.93Q526.76 0.93 530.98-1.44Q535.21-3.81 537.06-8.25L537.74-8.25L537.74 0.05L543.90 0.05L543.90-36.08Q543.90-44.09 538.94-48.56Q533.98-53.03 525.05-53.03Q519.97-53.03 515.84-51.29Q511.72-49.56 509.11-46.53Q506.49-43.51 506.01-39.55L512.35-39.55Q513.48-43.36 516.77-45.41Q520.07-47.46 525.05-47.46Q531.10-47.46 534.28-44.46Q537.45-41.46 537.45-35.79L537.45-30.81L522.22-30.13Q513.53-29.74 508.76-25.76Q504-21.78 504-14.84Q504-7.71 508.62-3.39Q513.23 0.93 520.80 0.93M522.36-4.74Q516.89-4.74 513.75-7.45Q510.60-10.16 510.60-14.84Q510.60-24.32 522.66-24.85L537.45-25.49L537.45-18.16Q537.45-14.40 535.45-11.35Q533.45-8.30 530.03-6.52Q526.61-4.74 522.36-4.74 M589.60 0.88Q595.70 0.88 600.32-1.90Q604.93-4.69 607.52-9.69Q610.11-14.70 610.11-21.24L610.11-31.35Q610.11-37.94 607.52-42.92Q604.93-47.90 600.32-50.68Q595.70-53.47 589.60-53.47Q583.89-53.47 579.74-51.22Q575.59-48.97 573.73-44.82L572.85-44.82L572.85-73.54L566.46-73.54L566.46 0L572.56 0L572.56-7.57L573.44-7.57Q575.73-3.42 579.86-1.27Q583.98 0.88 589.60 0.88M588.18-4.83Q581.15-4.83 576.93-9.72Q572.71-14.60 572.71-22.75L572.71-29.79Q572.71-37.94 576.93-42.82Q581.15-47.71 588.18-47.71Q595.26-47.71 599.49-42.82Q603.71-37.94 603.71-29.79L603.71-22.75Q603.71-14.65 599.49-9.74Q595.26-4.83 588.18-4.83 M629.05 0L671.97 0L671.97-5.18L653.96-5.18L653.96-73.54L628.96-73.54L628.96-68.36L647.56-68.36L647.56-5.18L629.05-5.18 M711.43-47.80Q718.41-47.80 722.34-43.04Q726.27-38.28 726.27-29.88L696.19-29.88Q696.19-38.33 700.24-43.07Q704.30-47.80 711.43-47.80M732.52-12.99L726.17-12.99Q724.95-9.13 721.24-6.98Q717.53-4.83 712.16-4.83Q704.83-4.83 700.51-9.69Q696.19-14.55 696.19-22.80L696.19-24.61L732.76-24.61L732.76-28.76Q732.76-36.62 730.25-42.14Q727.73-47.66 722.97-50.56Q718.21-53.47 711.43-53.47Q704.93-53.47 700.05-50.61Q695.17-47.75 692.48-42.60Q689.79-37.45 689.79-30.52L689.79-22.85Q689.79-11.62 695.68-5.37Q701.56 0.88 712.16 0.88Q717.48 0.88 721.75-0.83Q726.03-2.54 728.83-5.66Q731.64-8.79 732.52-12.99 M761.47 15.87L767.92 15.87L777.20-14.99L767.82-14.99  M893.02 0L899.66 0L899.66-30.47L923.49-70.46L915.82-70.46L896.63-37.26L896.04-37.26L876.86-70.46L869.19-70.46L893.02-30.47 M983.50-29.39L983.50-41.06Q983.50-55.66 976.71-63.79Q969.92-71.92 958.15-71.92Q946.39-71.92 939.60-63.79Q932.81-55.66 932.81-41.06L932.81-29.39Q932.81-14.84 939.60-6.69Q946.39 1.46 958.15 1.46Q969.92 1.46 976.71-6.69Q983.50-14.84 983.50-29.39M958.15-4.74Q949.51-4.74 944.51-11.21Q939.50-17.68 939.50-29.39L939.50-41.06Q939.50-52.78 944.51-59.25Q949.51-65.72 958.15-65.72Q966.80-65.72 971.80-59.25Q976.81-52.78 976.81-41.06L976.81-29.39Q976.81-17.68 971.80-11.21Q966.80-4.74 958.15-4.74 M1043.46 0L1043.46-6.05L1009.13-6.05L1009.13-70.46L1002.49-70.46L1002.49 0 M1107.13-29.39L1107.13-41.06Q1107.13-55.66 1100.34-63.79Q1093.55-71.92 1081.79-71.92Q1070.02-71.92 1063.23-63.79Q1056.45-55.66 1056.45-41.06L1056.45-29.39Q1056.45-14.84 1063.23-6.69Q1070.02 1.46 1081.79 1.46Q1093.55 1.46 1100.34-6.69Q1107.13-14.84 1107.13-29.39M1081.79-4.74Q1073.14-4.74 1068.14-11.21Q1063.13-17.68 1063.13-29.39L1063.13-41.06Q1063.13-52.78 1068.14-59.25Q1073.14-65.72 1081.79-65.72Q1090.43-65.72 1095.43-59.25Q1100.44-52.78 1100.44-41.06L1100.44-29.39Q1100.44-17.68 1095.43-11.21Q1090.43-4.74 1081.79-4.74 M1117.77-28.37L1169.43-28.37L1169.43-34.03L1117.77-34.03 M1207.76-53.47Q1202.15-53.47 1198.02-51.32Q1193.90-49.17 1191.60-45.02L1190.72-45.02L1190.72-52.59L1184.62-52.59L1184.62 17.82L1191.02 17.82L1191.02-7.76L1191.89-7.76Q1193.75-3.61 1197.90-1.37Q1202.05 0.88 1207.76 0.88Q1213.87 0.88 1218.48-1.90Q1223.10-4.69 1225.68-9.69Q1228.27-14.70 1228.27-21.24L1228.27-31.35Q1228.27-37.94 1225.68-42.92Q1223.10-47.90 1218.48-50.68Q1213.87-53.47 1207.76-53.47M1206.35-47.71Q1213.43-47.71 1217.65-42.82Q1221.88-37.94 1221.88-29.79L1221.88-22.75Q1221.88-14.65 1217.65-9.74Q1213.43-4.83 1206.35-4.83Q1199.32-4.83 1195.09-9.72Q1190.87-14.60 1190.87-22.75L1190.87-29.79Q1190.87-37.94 1195.09-42.82Q1199.32-47.71 1206.35-47.71 M1264.75 0L1264.75-23.63Q1264.75-34.42 1269.78-40.82Q1274.80-47.22 1283.30-47.22Q1285.45-47.22 1287.79-46.83Q1290.14-46.44 1291.94-45.75L1291.94-52.73Q1290.72-53.27 1288.65-53.59Q1286.57-53.91 1284.28-53.91Q1276.61-53.91 1271.63-50.07Q1266.65-46.24 1265.28-39.21L1264.60-39.21L1264.60-52.59L1246.44-52.59L1246.44-47.41L1258.35-47.41L1258.35 0L1264.75 0M1247.51 0L1281.45 0L1281.45-5.18L1247.51-5.18 M1329.05 0.88Q1335.84 0.88 1340.84-1.98Q1345.85-4.83 1348.58-10.06Q1351.32-15.28 1351.32-22.36L1351.32-30.18Q1351.32-37.26 1348.58-42.48Q1345.85-47.71 1340.84-50.56Q1335.84-53.42 1329.05-53.42Q1322.27-53.42 1317.26-50.56Q1312.26-47.71 1309.52-42.48Q1306.79-37.26 1306.79-30.18L1306.79-22.36Q1306.79-15.28 1309.52-10.06Q1312.26-4.83 1317.26-1.98Q1322.27 0.88 1329.05 0.88M1329.05-47.71Q1336.38-47.71 1340.65-42.80Q1344.92-37.89 1344.92-29.35L1344.92-23.19Q1344.92-14.65 1340.65-9.74Q1336.38-4.83 1329.05-4.83Q1321.73-4.83 1317.46-9.74Q1313.18-14.65 1313.18-23.19L1313.18-29.35Q1313.18-37.89 1317.46-42.80Q1321.73-47.71 1329.05-47.71 M1390.87 0.88Q1397.66 0.88 1402.66-1.98Q1407.67-4.83 1410.40-10.06Q1413.13-15.28 1413.13-22.36L1413.13-30.18Q1413.13-37.26 1410.40-42.48Q1407.67-47.71 1402.66-50.56Q1397.66-53.42 1390.87-53.42Q1384.08-53.42 1379.08-50.56Q1374.07-47.71 1371.34-42.48Q1368.60-37.26 1368.60-30.18L1368.60-22.36Q1368.60-15.28 1371.34-10.06Q1374.07-4.83 1379.08-1.98Q1384.08 0.88 1390.87 0.88M1390.87-47.71Q1398.19-47.71 1402.47-42.80Q1406.74-37.89 1406.74-29.35L1406.74-23.19Q1406.74-14.65 1402.47-9.74Q1398.19-4.83 1390.87-4.83Q1383.54-4.83 1379.27-9.74Q1375-14.65 1375-23.19L1375-29.35Q1375-37.89 1379.27-42.80Q1383.54-47.71 1390.87-47.71 M1445.41-47.17L1445.41 0L1451.81 0L1451.81-47.17L1475.78-47.17L1475.78-52.59L1451.81-52.59L1451.81-58.45Q1451.81-67.43 1464.45-67.43Q1467.14-67.43 1470.41-67.26Q1473.68-67.09 1475.78-66.85L1475.78-72.22Q1474.22-72.46 1470.73-72.68Q1467.24-72.90 1464.45-72.90Q1458.20-72.90 1453.96-71.29Q1449.71-69.68 1447.56-66.50Q1445.41-63.33 1445.41-58.64L1445.41-52.59L1431.25-52.59L1431.25-47.17 M1503.27 15.87L1509.72 15.87L1518.99-14.99L1509.62-14.99  M1630.86-47.17L1630.86 0L1637.26 0L1637.26-47.17L1661.23-47.17L1661.23-52.59L1637.26-52.59L1637.26-58.45Q1637.26-67.43 1649.90-67.43Q1652.59-67.43 1655.86-67.26Q1659.13-67.09 1661.23-66.85L1661.23-72.22Q1659.67-72.46 1656.18-72.68Q1652.69-72.90 1649.90-72.90Q1643.65-72.90 1639.40-71.29Q1635.16-69.68 1633.01-66.50Q1630.86-63.33 1630.86-58.64L1630.86-52.59L1616.70-52.59L1616.70-47.17 M1720.75 0L1720.75-52.59L1714.36-52.59L1714.36-21.34Q1714.36-14.01 1709.99-9.45Q1705.62-4.88 1698.54-4.88Q1691.89-4.88 1688.72-8.59Q1685.55-12.30 1685.55-20.02L1685.55-52.59L1679.15-52.59L1679.15-18.41Q1679.15-9.03 1683.69-4.08Q1688.23 0.88 1696.83 0.88Q1702.93 0.88 1707.40-1.81Q1711.87-4.49 1714.01-9.47L1714.65-9.47L1714.65 0 M1741.75 0L1784.67 0L1784.67-5.18L1766.65-5.18L1766.65-73.54L1741.65-73.54L1741.65-68.36L1760.25-68.36L1760.25-5.18L1741.75-5.18 M1803.56 0L1846.48 0L1846.48-5.18L1828.47-5.18L1828.47-73.54L1803.47-73.54L1803.47-68.36L1822.07-68.36L1822.07-5.18L1803.56-5.18 M1870.95 18.60Q1875.24 18.60 1878.15 17.21Q1881.05 15.82 1883.33 12.33Q1885.60 8.84 1887.94 2.54L1908.40-52.59L1901.56-52.59L1885.69-6.98L1885.11-6.98L1869.19-52.59L1862.26-52.59L1881.98 0.34L1880.91 3.61Q1878.96 8.84 1876.71 10.94Q1874.46 13.04 1870.85 13.04Q1870.26 13.04 1869.38 12.99Q1868.51 12.94 1867.97 12.84L1867.97 18.41Q1868.60 18.46 1869.48 18.53Q1870.36 18.60 1870.95 18.60 M1921.39-28.37L1973.05-28.37L1973.05-34.03L1921.39-34.03 M2004.39 0.93Q2010.35 0.93 2014.58-1.44Q2018.80-3.81 2020.65-8.25L2021.34-8.25L2021.34 0.05L2027.49 0.05L2027.49-36.08Q2027.49-44.09 2022.53-48.56Q2017.58-53.03 2008.64-53.03Q2003.56-53.03 1999.44-51.29Q1995.31-49.56 1992.70-46.53Q1990.09-43.51 1989.60-39.55L1995.95-39.55Q1997.07-43.36 2000.37-45.41Q2003.66-47.46 2008.64-47.46Q2014.70-47.46 2017.87-44.46Q2021.04-41.46 2021.04-35.79L2021.04-30.81L2005.81-30.13Q1997.12-29.74 1992.36-25.76Q1987.60-21.78 1987.60-14.84Q1987.60-7.71 1992.21-3.39Q1996.83 0.93 2004.39 0.93M2005.96-4.74Q2000.49-4.74 1997.34-7.45Q1994.19-10.16 1994.19-14.84Q1994.19-24.32 2006.25-24.85L2021.04-25.49L2021.04-18.16Q2021.04-14.40 2019.04-11.35Q2017.04-8.30 2013.62-6.52Q2010.21-4.74 2005.96-4.74 M2091.65 0L2091.65-52.59L2085.25-52.59L2085.25-21.34Q2085.25-14.01 2080.88-9.45Q2076.51-4.88 2069.43-4.88Q2062.79-4.88 2059.62-8.59Q2056.45-12.30 2056.45-20.02L2056.45-52.59L2050.05-52.59L2050.05-18.41Q2050.05-9.03 2054.59-4.08Q2059.13 0.88 2067.72 0.88Q2073.83 0.88 2078.30-1.81Q2082.76-4.49 2084.91-9.47L2085.55-9.47L2085.55 0 M2130.32 0.88Q2124.22 0.88 2119.60-1.90Q2114.99-4.69 2112.40-9.69Q2109.81-14.70 2109.81-21.24L2109.81-31.35Q2109.81-37.94 2112.40-42.92Q2114.99-47.90 2119.60-50.68Q2124.22-53.47 2130.32-53.47Q2136.04-53.47 2140.19-51.22Q2144.34-48.97 2146.19-44.82L2147.07-44.82L2147.07-73.54L2153.47-73.54L2153.47 0L2147.36 0L2147.36-7.57L2146.48-7.57Q2144.19-3.42 2140.06-1.27Q2135.94 0.88 2130.32 0.88M2131.74-4.83Q2138.77-4.83 2142.99-9.72Q2147.22-14.60 2147.22-22.75L2147.22-29.79Q2147.22-37.94 2142.99-42.82Q2138.77-47.71 2131.74-47.71Q2124.66-47.71 2120.43-42.82Q2116.21-37.94 2116.21-29.79L2116.21-22.75Q2116.21-14.65 2120.43-9.74Q2124.66-4.83 2131.74-4.83 M2195.46-66.50Q2197.95-66.50 2199.73-68.29Q2201.51-70.07 2201.51-72.56Q2201.51-75.05 2199.73-76.83Q2197.95-78.61 2195.46-78.61Q2192.97-78.61 2191.19-76.83Q2189.40-75.05 2189.40-72.56Q2189.40-70.07 2191.19-68.29Q2192.97-66.50 2195.46-66.50M2174.46 0L2217.38 0L2217.38-5.18L2199.37-5.18L2199.37-52.59L2174.37-52.59L2174.37-47.41L2192.97-47.41L2192.97-5.18L2174.46-5.18 M2254.44-66.26L2248.05-66.26L2248.05-52.59L2233.89-52.59L2233.89-47.17L2248.05-47.17L2248.05-15.19Q2248.05-10.01 2250.15-6.57Q2252.25-3.12 2256.45-1.42Q2260.64 0.29 2266.94 0.29Q2269.24 0.29 2272.27 0.10Q2275.29-0.10 2276.46-0.29L2276.46-5.76Q2275.20-5.57 2272.61-5.47Q2270.02-5.37 2267.29-5.37Q2261.04-5.37 2257.74-7.93Q2254.44-10.50 2254.44-15.38L2254.44-47.17L2276.46-47.17L2276.46-52.59L2254.44-52.59 M2318.65-47.80Q2325.63-47.80 2329.57-43.04Q2333.50-38.28 2333.50-29.88L2303.42-29.88Q2303.42-38.33 2307.47-43.07Q2311.52-47.80 2318.65-47.80M2339.75-12.99L2333.40-12.99Q2332.18-9.13 2328.47-6.98Q2324.76-4.83 2319.38-4.83Q2312.06-4.83 2307.74-9.69Q2303.42-14.55 2303.42-22.80L2303.42-24.61L2339.99-24.61L2339.99-28.76Q2339.99-36.62 2337.48-42.14Q2334.96-47.66 2330.20-50.56Q2325.44-53.47 2318.65-53.47Q2312.16-53.47 2307.28-50.61Q2302.39-47.75 2299.71-42.60Q2297.02-37.45 2297.02-30.52L2297.02-22.85Q2297.02-11.62 2302.91-5.37Q2308.79 0.88 2319.38 0.88Q2324.71 0.88 2328.98-0.83Q2333.25-2.54 2336.06-5.66Q2338.87-8.79 2339.75-12.99 M2377.59 0.88Q2371.48 0.88 2366.87-1.90Q2362.26-4.69 2359.67-9.69Q2357.08-14.70 2357.08-21.24L2357.08-31.35Q2357.08-37.94 2359.67-42.92Q2362.26-47.90 2366.87-50.68Q2371.48-53.47 2377.59-53.47Q2383.30-53.47 2387.45-51.22Q2391.60-48.97 2393.46-44.82L2394.34-44.82L2394.34-73.54L2400.73-73.54L2400.73 0L2394.63 0L2394.63-7.57L2393.75-7.57Q2391.46-3.42 2387.33-1.27Q2383.20 0.88 2377.59 0.88M2379-4.83Q2386.04-4.83 2390.26-9.72Q2394.48-14.60 2394.48-22.75L2394.48-29.79Q2394.48-37.94 2390.26-42.82Q2386.04-47.71 2379-47.71Q2371.92-47.71 2367.70-42.82Q2363.48-37.94 2363.48-29.79L2363.48-22.75Q2363.48-14.65 2367.70-9.74Q2371.92-4.83 2379-4.83" />
    <path transform="translate(276.92 505.15) scale(0.360000)" d="M45.75-37.11L52.10-37.11Q51.07-44.53 45.53-49Q39.99-53.47 31.84-53.47Q21.48-53.47 15.60-47.24Q9.72-41.02 9.72-30.03L9.72-22.56Q9.72-11.57 15.60-5.35Q21.48 0.88 31.84 0.88Q39.99 0.88 45.53-3.61Q51.07-8.11 52.10-15.48L45.75-15.48Q44.97-10.79 41.02-7.84Q37.06-4.88 31.69-4.88Q24.17-4.88 20.14-9.74Q16.11-14.60 16.11-23.63L16.11-28.96Q16.11-37.99 20.14-42.85Q24.17-47.71 31.69-47.71Q37.06-47.71 41.02-44.75Q44.97-41.80 45.75-37.11 M92.72 0.88Q99.51 0.88 104.52-1.98Q109.52-4.83 112.26-10.06Q114.99-15.28 114.99-22.36L114.99-30.18Q114.99-37.26 112.26-42.48Q109.52-47.71 104.52-50.56Q99.51-53.42 92.72-53.42Q85.94-53.42 80.93-50.56Q75.93-47.71 73.19-42.48Q70.46-37.26 70.46-30.18L70.46-22.36Q70.46-15.28 73.19-10.06Q75.93-4.83 80.93-1.98Q85.94 0.88 92.72 0.88M92.72-47.71Q100.05-47.71 104.32-42.80Q108.59-37.89 108.59-29.35L108.59-23.19Q108.59-14.65 104.32-9.74Q100.05-4.83 92.72-4.83Q85.40-4.83 81.13-9.74Q76.86-14.65 76.86-23.19L76.86-29.35Q76.86-37.89 81.13-42.80Q85.40-47.71 92.72-47.71 M133.74-52.59L133.74 0L140.14 0L140.14-31.25Q140.14-38.57 144.51-43.14Q148.88-47.71 155.96-47.71Q162.60-47.71 165.77-43.99Q168.95-40.28 168.95-32.57L168.95 0L175.34 0L175.34-34.18Q175.34-43.55 170.80-48.51Q166.26-53.47 157.67-53.47Q151.56-53.47 147.09-50.78Q142.63-48.10 140.48-43.12L139.84-43.12L139.84-52.59 M214.50-66.26L208.11-66.26L208.11-52.59L193.95-52.59L193.95-47.17L208.11-47.17L208.11-15.19Q208.11-10.01 210.21-6.57Q212.30-3.12 216.50-1.42Q220.70 0.29 227 0.29Q229.30 0.29 232.32 0.10Q235.35-0.10 236.52-0.29L236.52-5.76Q235.25-5.57 232.67-5.47Q230.08-5.37 227.34-5.37Q221.09-5.37 217.80-7.93Q214.50-10.50 214.50-15.38L214.50-47.17L236.52-47.17L236.52-52.59L214.50-52.59 M275.68 0L275.68-23.63Q275.68-34.42 280.71-40.82Q285.74-47.22 294.24-47.22Q296.39-47.22 298.73-46.83Q301.07-46.44 302.88-45.75L302.88-52.73Q301.66-53.27 299.58-53.59Q297.51-53.91 295.21-53.91Q287.55-53.91 282.57-50.07Q277.59-46.24 276.22-39.21L275.54-39.21L275.54-52.59L257.37-52.59L257.37-47.41L269.29-47.41L269.29 0L275.68 0M258.45 0L292.38 0L292.38-5.18L258.45-5.18 M339.99 0.88Q346.78 0.88 351.78-1.98Q356.79-4.83 359.52-10.06Q362.26-15.28 362.26-22.36L362.26-30.18Q362.26-37.26 359.52-42.48Q356.79-47.71 351.78-50.56Q346.78-53.42 339.99-53.42Q333.20-53.42 328.20-50.56Q323.19-47.71 320.46-42.48Q317.72-37.26 317.72-30.18L317.72-22.36Q317.72-15.28 320.46-10.06Q323.19-4.83 328.20-1.98Q333.20 0.88 339.99 0.88M339.99-47.71Q347.31-47.71 351.59-42.80Q355.86-37.89 355.86-29.35L355.86-23.19Q355.86-14.65 351.59-9.74Q347.31-4.83 339.99-4.83Q332.67-4.83 328.39-9.74Q324.12-14.65 324.12-23.19L324.12-29.35Q324.12-37.89 328.39-42.80Q332.67-47.71 339.99-47.71 M381.79 0L424.71 0L424.71-5.18L406.69-5.18L406.69-73.54L381.69-73.54L381.69-68.36L400.29-68.36L400.29-5.18L381.79-5.18  M505.42 0L548.34 0L548.34-5.18L530.32-5.18L530.32-73.54L505.32-73.54L505.32-68.36L523.93-68.36L523.93-5.18L505.42-5.18 M582.62 0.93Q588.57 0.93 592.80-1.44Q597.02-3.81 598.88-8.25L599.56-8.25L599.56 0.05L605.71 0.05L605.71-36.08Q605.71-44.09 600.76-48.56Q595.80-53.03 586.87-53.03Q581.79-53.03 577.66-51.29Q573.54-49.56 570.92-46.53Q568.31-43.51 567.82-39.55L574.17-39.55Q575.29-43.36 578.59-45.41Q581.88-47.46 586.87-47.46Q592.92-47.46 596.09-44.46Q599.27-41.46 599.27-35.79L599.27-30.81L584.03-30.13Q575.34-29.74 570.58-25.76Q565.82-21.78 565.82-14.84Q565.82-7.71 570.43-3.39Q575.05 0.93 582.62 0.93M584.18-4.74Q578.71-4.74 575.56-7.45Q572.41-10.16 572.41-14.84Q572.41-24.32 584.47-24.85L599.27-25.49L599.27-18.16Q599.27-14.40 597.27-11.35Q595.26-8.30 591.85-6.52Q588.43-4.74 584.18-4.74 M634.62 18.60Q638.92 18.60 641.82 17.21Q644.73 15.82 647 12.33Q649.27 8.84 651.61 2.54L672.07-52.59L665.23-52.59L649.37-6.98L648.78-6.98L632.86-52.59L625.93-52.59L645.65 0.34L644.58 3.61Q642.63 8.84 640.38 10.94Q638.13 13.04 634.52 13.04Q633.94 13.04 633.06 12.99Q632.18 12.94 631.64 12.84L631.64 18.41Q632.28 18.46 633.15 18.53Q634.03 18.60 634.62 18.60 M711.43-47.80Q718.41-47.80 722.34-43.04Q726.27-38.28 726.27-29.88L696.19-29.88Q696.19-38.33 700.24-43.07Q704.30-47.80 711.43-47.80M732.52-12.99L726.17-12.99Q724.95-9.13 721.24-6.98Q717.53-4.83 712.16-4.83Q704.83-4.83 700.51-9.69Q696.19-14.55 696.19-22.80L696.19-24.61L732.76-24.61L732.76-28.76Q732.76-36.62 730.25-42.14Q727.73-47.66 722.97-50.56Q718.21-53.47 711.43-53.47Q704.93-53.47 700.05-50.61Q695.17-47.75 692.48-42.60Q689.79-37.45 689.79-30.52L689.79-22.85Q689.79-11.62 695.68-5.37Q701.56 0.88 712.16 0.88Q717.48 0.88 721.75-0.83Q726.03-2.54 728.83-5.66Q731.64-8.79 732.52-12.99 M770.21 0L770.21-23.63Q770.21-34.42 775.24-40.82Q780.27-47.22 788.77-47.22Q790.92-47.22 793.26-46.83Q795.61-46.44 797.41-45.75L797.41-52.73Q796.19-53.27 794.12-53.59Q792.04-53.91 789.75-53.91Q782.08-53.91 777.10-50.07Q772.12-46.24 770.75-39.21L770.07-39.21L770.07-52.59L751.90-52.59L751.90-47.41L763.82-47.41L763.82 0L770.21 0M752.98 0L786.91 0L786.91-5.18L752.98-5.18  M889.06-47.17L889.06 0L895.46 0L895.46-47.17L919.43-47.17L919.43-52.59L895.46-52.59L895.46-58.45Q895.46-67.43 908.11-67.43Q910.79-67.43 914.06-67.26Q917.33-67.09 919.43-66.85L919.43-72.22Q917.87-72.46 914.38-72.68Q910.89-72.90 908.11-72.90Q901.86-72.90 897.61-71.29Q893.36-69.68 891.21-66.50Q889.06-63.33 889.06-58.64L889.06-52.59L874.90-52.59L874.90-47.17 M958.15 0.88Q964.94 0.88 969.95-1.98Q974.95-4.83 977.69-10.06Q980.42-15.28 980.42-22.36L980.42-30.18Q980.42-37.26 977.69-42.48Q974.95-47.71 969.95-50.56Q964.94-53.42 958.15-53.42Q951.37-53.42 946.36-50.56Q941.36-47.71 938.62-42.48Q935.89-37.26 935.89-30.18L935.89-22.36Q935.89-15.28 938.62-10.06Q941.36-4.83 946.36-1.98Q951.37 0.88 958.15 0.88M958.15-47.71Q965.48-47.71 969.75-42.80Q974.02-37.89 974.02-29.35L974.02-23.19Q974.02-14.65 969.75-9.74Q965.48-4.83 958.15-4.83Q950.83-4.83 946.56-9.74Q942.29-14.65 942.29-23.19L942.29-29.35Q942.29-37.89 946.56-42.80Q950.83-47.71 958.15-47.71 M1017.48 0L1017.48-23.63Q1017.48-34.42 1022.51-40.82Q1027.54-47.22 1036.04-47.22Q1038.18-47.22 1040.53-46.83Q1042.87-46.44 1044.68-45.75L1044.68-52.73Q1043.46-53.27 1041.38-53.59Q1039.31-53.91 1037.01-53.91Q1029.35-53.91 1024.37-50.07Q1019.38-46.24 1018.02-39.21L1017.33-39.21L1017.33-52.59L999.17-52.59L999.17-47.41L1011.08-47.41L1011.08 0L1017.48 0M1000.24 0L1034.18 0L1034.18-5.18L1000.24-5.18  M1124.80 0L1124.80-28.76L1124.80-57.47L1125.29-57.47L1140.72-16.55L1146.48-16.55L1161.91-57.47L1162.40-57.47L1162.40-28.76L1162.40 0L1168.65 0L1168.65-70.46L1160.74-70.46L1143.90-25.15L1143.36-25.15L1126.42-70.46L1118.55-70.46L1118.55 0 M1207.03-4.74Q1197.75-4.74 1192.94-11.01Q1188.13-17.29 1188.13-29.39L1188.13-41.06Q1188.13-53.17 1192.94-59.45Q1197.75-65.72 1207.03-65.72Q1214.31-65.72 1219.02-61.08Q1223.73-56.45 1224.02-48.93L1230.71-48.93Q1230.47-59.62 1224.12-65.77Q1217.77-71.92 1207.03-71.92Q1194.87-71.92 1188.16-63.84Q1181.45-55.76 1181.45-41.06L1181.45-29.39Q1181.45-14.70 1188.16-6.62Q1194.87 1.46 1207.03 1.46Q1213.92 1.46 1219.26-1.29Q1224.61-4.05 1227.64-8.94Q1230.66-13.82 1230.66-20.07L1223.97-20.07Q1223.78-12.94 1219.24-8.84Q1214.70-4.74 1207.03-4.74 M1269.43-70.46L1246.88-70.46L1246.88 0L1253.56 0L1253.56-26.61L1269.43-26.61Q1276.07-26.61 1281.03-29.35Q1285.99-32.08 1288.75-37.04Q1291.50-41.99 1291.50-48.54Q1291.50-55.13 1288.75-60.06Q1285.99-64.99 1281.03-67.72Q1276.07-70.46 1269.43-70.46M1253.56-32.57L1253.56-64.50L1267.82-64.50Q1275.83-64.50 1280.27-60.30Q1284.72-56.10 1284.72-48.54Q1284.72-40.97 1280.27-36.77Q1275.83-32.57 1267.82-32.57  M1389.01-66.26L1382.62-66.26L1382.62-52.59L1368.46-52.59L1368.46-47.17L1382.62-47.17L1382.62-15.19Q1382.62-10.01 1384.72-6.57Q1386.82-3.12 1391.02-1.42Q1395.21 0.29 1401.51 0.29Q1403.81 0.29 1406.84 0.10Q1409.86-0.10 1411.04-0.29L1411.04-5.76Q1409.77-5.57 1407.18-5.47Q1404.59-5.37 1401.86-5.37Q1395.61-5.37 1392.31-7.93Q1389.01-10.50 1389.01-15.38L1389.01-47.17L1411.04-47.17L1411.04-52.59L1389.01-52.59 M1452.69 0.88Q1459.47 0.88 1464.48-1.98Q1469.48-4.83 1472.22-10.06Q1474.95-15.28 1474.95-22.36L1474.95-30.18Q1474.95-37.26 1472.22-42.48Q1469.48-47.71 1464.48-50.56Q1459.47-53.42 1452.69-53.42Q1445.90-53.42 1440.89-50.56Q1435.89-47.71 1433.15-42.48Q1430.42-37.26 1430.42-30.18L1430.42-22.36Q1430.42-15.28 1433.15-10.06Q1435.89-4.83 1440.89-1.98Q1445.90 0.88 1452.69 0.88M1452.69-47.71Q1460.01-47.71 1464.28-42.80Q1468.55-37.89 1468.55-29.35L1468.55-23.19Q1468.55-14.65 1464.28-9.74Q1460.01-4.83 1452.69-4.83Q1445.36-4.83 1441.09-9.74Q1436.82-14.65 1436.82-23.19L1436.82-29.35Q1436.82-37.89 1441.09-42.80Q1445.36-47.71 1452.69-47.71 M1514.50 0.88Q1521.29 0.88 1526.29-1.98Q1531.30-4.83 1534.03-10.06Q1536.77-15.28 1536.77-22.36L1536.77-30.18Q1536.77-37.26 1534.03-42.48Q1531.30-47.71 1526.29-50.56Q1521.29-53.42 1514.50-53.42Q1507.71-53.42 1502.71-50.56Q1497.71-47.71 1494.97-42.48Q1492.24-37.26 1492.24-30.18L1492.24-22.36Q1492.24-15.28 1494.97-10.06Q1497.71-4.83 1502.71-1.98Q1507.71 0.88 1514.50 0.88M1514.50-47.71Q1521.83-47.71 1526.10-42.80Q1530.37-37.89 1530.37-29.35L1530.37-23.19Q1530.37-14.65 1526.10-9.74Q1521.83-4.83 1514.50-4.83Q1507.18-4.83 1502.91-9.74Q1498.63-14.65 1498.63-23.19L1498.63-29.35Q1498.63-37.89 1502.91-42.80Q1507.18-47.71 1514.50-47.71 M1556.30 0L1599.22 0L1599.22-5.18L1581.20-5.18L1581.20-73.54L1556.20-73.54L1556.20-68.36L1574.80-68.36L1574.80-5.18L1556.30-5.18  M1714.79-37.11L1721.14-37.11Q1720.12-44.53 1714.58-49Q1709.03-53.47 1700.88-53.47Q1690.53-53.47 1684.64-47.24Q1678.76-41.02 1678.76-30.03L1678.76-22.56Q1678.76-11.57 1684.64-5.35Q1690.53 0.88 1700.88 0.88Q1709.03 0.88 1714.58-3.61Q1720.12-8.11 1721.14-15.48L1714.79-15.48Q1714.01-10.79 1710.06-7.84Q1706.10-4.88 1700.73-4.88Q1693.21-4.88 1689.18-9.74Q1685.16-14.60 1685.16-23.63L1685.16-28.96Q1685.16-37.99 1689.18-42.85Q1693.21-47.71 1700.73-47.71Q1706.10-47.71 1710.06-44.75Q1714.01-41.80 1714.79-37.11 M1757.13 0.93Q1763.09 0.93 1767.31-1.44Q1771.53-3.81 1773.39-8.25L1774.07-8.25L1774.07 0.05L1780.22 0.05L1780.22-36.08Q1780.22-44.09 1775.27-48.56Q1770.31-53.03 1761.38-53.03Q1756.30-53.03 1752.17-51.29Q1748.05-49.56 1745.43-46.53Q1742.82-43.51 1742.33-39.55L1748.68-39.55Q1749.80-43.36 1753.10-45.41Q1756.40-47.46 1761.38-47.46Q1767.43-47.46 1770.61-44.46Q1773.78-41.46 1773.78-35.79L1773.78-30.81L1758.54-30.13Q1749.85-29.74 1745.09-25.76Q1740.33-21.78 1740.33-14.84Q1740.33-7.71 1744.95-3.39Q1749.56 0.93 1757.13 0.93M1758.69-4.74Q1753.22-4.74 1750.07-7.45Q1746.92-10.16 1746.92-14.84Q1746.92-24.32 1758.98-24.85L1773.78-25.49L1773.78-18.16Q1773.78-14.40 1771.78-11.35Q1769.78-8.30 1766.36-6.52Q1762.94-4.74 1758.69-4.74 M1803.56 0L1846.48 0L1846.48-5.18L1828.47-5.18L1828.47-73.54L1803.47-73.54L1803.47-68.36L1822.07-68.36L1822.07-5.18L1803.56-5.18 M1865.38 0L1908.30 0L1908.30-5.18L1890.28-5.18L1890.28-73.54L1865.28-73.54L1865.28-68.36L1883.89-68.36L1883.89-5.18L1865.38-5.18 M1928.86-38.92Q1928.86-28.22 1942.82-24.95L1950.59-23.10Q1955.96-21.83 1958.25-19.75Q1960.55-17.68 1960.55-14.06Q1960.55-9.77 1957.06-7.18Q1953.56-4.59 1947.66-4.59Q1942.19-4.59 1938.55-6.86Q1934.91-9.13 1933.89-13.18L1927.25-13.18Q1927.98-6.69 1933.40-2.91Q1938.82 0.88 1947.36 0.88Q1956.35 0.88 1961.77-3.32Q1967.19-7.52 1967.19-14.45Q1967.19-20.02 1963.62-23.46Q1960.06-26.90 1952.49-28.71L1945.36-30.37Q1939.99-31.64 1937.65-33.69Q1935.30-35.74 1935.30-39.16Q1935.30-43.26 1938.57-45.70Q1941.85-48.14 1947.31-48.14Q1952.34-48.14 1955.71-45.92Q1959.08-43.70 1959.91-39.84L1966.21-39.84Q1965.38-46.09 1960.30-49.78Q1955.22-53.47 1947.51-53.47Q1939.21-53.47 1934.03-49.44Q1928.86-45.41 1928.86-38.92 M2009.03 0Q2011.28 0 2013.11-1.10Q2014.94-2.20 2016.04-4.03Q2017.14-5.86 2017.14-8.11Q2017.14-10.35 2016.04-12.18Q2014.94-14.01 2013.11-15.11Q2011.28-16.21 2009.03-16.21Q2006.84-16.21 2004.98-15.11Q2003.13-14.01 2002.03-12.18Q2000.93-10.35 2000.93-8.11Q2000.93-5.86 2002.03-4.03Q2003.13-2.20 2004.98-1.10Q2006.84 0 2009.03 0" />
  </g>
</svg>
