<svg xmlns="http://www.w3.org/2000/svg" viewBox="0 0 1280 640" role="img" aria-labelledby="knotrust-social-title">
  <title id="knotrust-social-title">KnoTrust — stop trusting your AI agents blindly; take back control</title>
  <!--
    KnoTrust GitHub social-preview / OG card (1280x640).
    Dark surface (#0B0B10), the wordmark lockup in paper + gold, tagline set
    in a monospace face (SF Mono) — a deliberate contrast to the bold display
    wordmark, since KnoTrust is a CLI/stdio proxy and the mono nod to a
    terminal/audit-log is on-brand. A single oversized, low-opacity copy of
    the two-loop mark bleeds off the top-right corner for depth/texture; it
    carries no meaning on its own, it is just atmosphere.
  -->
  <rect width="1280" height="640" fill="#0B0B10"/>
  <g transform="translate(722.0 -342.0) scale(1.7578)" opacity="0.38">
    <g stroke-linecap="round" fill="none" transform="rotate(32 256 256)">
      <path d="M 276.22 364.71 A 140 140 0 1 1 276.22 147.29" stroke="#1B1A22" stroke-width="70"/>
      <path d="M 235.78 147.29 A 140 140 0 1 1 235.78 364.71" stroke="#1B1A22" stroke-width="70"/>
    </g>
  </g>
  <g transform="translate(140.00 131.34) scale(0.628141)">
    
  <g transform="translate(40 40) scale(0.585938)">
    <g stroke-linecap="round" fill="none" transform="rotate(32 256 256)">
      <path d="M 276.22 364.71 A 140 140 0 1 1 276.22 147.29" stroke="#F5F4F0" stroke-width="70"/>
      <path d="M 235.78 147.29 A 140 140 0 1 1 235.78 364.71" stroke="#E7A93A" stroke-width="70"/>
      <path d="M 226.73 121.46 A 140 140 0 0 1 281.79 152.06" stroke="#F5F4F0" stroke-width="70"/>
    </g>
  </g>
  <g transform="translate(377.44 295.91)">
    <path fill="#F5F4F0" d="M22.56-213.57L22.56 0L54.93 0L54.93-65.04L92.43-104.44L150.59 0L188.96 0L113.38-129.35L181.79-213.57L143.41-213.57L55.52-103.56L54.93-103.56L54.93-213.57 M212.74-152.05L212.74 0L243.36 0L243.36-90.53Q243.36-106.49 252-114.84Q260.49-123.34 273.68-123.34Q286.86-123.34 295.21-114.84Q303.71-106.49 303.71-90.53L303.71 0L334.32 0L334.32-101.07Q333.59-127.15 318.06-140.62Q302.39-153.96 283.49-153.96Q259.03-153.96 243.94-135.94L243.36-135.94L243.36-152.05 M370.40-76.17Q370.40-52.15 374.36-39.55Q378.46-26.95 386.96-17.72Q393.25-10.55 404.53-4.83Q415.67 1.46 433.10 1.76Q451.12 1.46 462.25-4.83Q468.25-7.47 472.06-11.13Q476.31-14.36 479.24-17.72Q488.32-26.95 492.13-39.55Q495.79-52.15 495.79-76.17Q495.79-100.20 492.13-113.09Q488.32-125.68 479.24-134.33Q473.23-141.94 462.25-147.95Q451.12-153.66 433.10-153.96Q415.67-153.66 404.53-147.95Q393.25-141.94 386.96-134.33Q378.46-125.68 374.36-113.09Q370.40-100.20 370.40-76.17M465.18-75.88Q465.18-60.35 463.71-53.03Q462.25-45.56 457.71-39.84Q454.34-35.45 447.75-32.08Q441.45-28.86 433.10-28.86Q425.33-28.86 418.74-32.08Q412.44-35.45 408.49-39.84Q404.53-45.56 402.78-53.03Q401.02-60.35 401.02-76.17Q401.02-92.14 402.78-99.61Q404.53-106.79 408.49-112.21Q412.44-117.33 418.74-120.26Q425.33-123.34 433.10-123.34Q441.45-123.34 447.75-120.26Q454.34-117.33 457.71-112.21Q462.25-106.79 463.71-99.61Q465.18-92.14 465.18-75.88 M570.84-184.72L570.84 0L603.36 0L603.36-184.72L661.80-184.72L661.80-213.57L512.39-213.57L512.39-184.72 M685.87-152.05L685.87 0L716.49 0L716.49-91.55Q716.78-108.25 726.16-115.72Q734.51-123.34 746.22-123.34Q756.63-123.34 766.29-115.72L788.56-142.24Q774.94-153.66 756.63-153.96Q732.16-153.96 717.07-135.94L716.49-135.94L716.49-152.05 M806.62-152.05L806.62-50.98Q806.91-25.20 823.47-12.01Q838.70 1.46 857.60 1.76Q881.91 1.76 897-16.26L897.59-16.26L897.59 0L928.20 0L928.20-152.05L897.59-152.05L897.59-61.52Q897.59-46.14 889.09-37.50Q880.74-28.86 867.56-28.86Q854.38-28.86 845.88-37.50Q837.24-46.14 837.24-61.52L837.24-152.05 M976.29-46.44L954.91-25.49Q984.64 1.76 1021.85 1.76Q1049.24 1.46 1066.82-10.84Q1084.55-22.85 1084.84-44.97Q1084.84-63.87 1075.03-76.17Q1064.48-88.77 1040.75-90.53L1015.55-92.43Q1004.42-93.60 1000.03-97.85Q995.19-101.66 995.48-106.79Q995.48-114.84 1001.49-119.97Q1007.20-125.10 1021.56-125.10Q1034.16-125.10 1043.82-121.44Q1053.64-117.33 1062.43-111.04L1081.32-133.15Q1070.19-142.82 1056.13-148.54Q1048.80-151.17 1040.46-152.64Q1032.11-153.96 1021.56-153.96Q997.24-153.96 981.42-142.24Q965.16-130.52 964.87-107.08Q965.16-87.60 977.47-76.76Q989.48-65.62 1008.67-63.87L1035.62-61.52Q1044.12-61.23 1049.24-57.86Q1054.22-54.64 1054.22-46.44Q1054.22-37.21 1045.88-32.08Q1037.53-26.95 1024.34-26.95Q994.90-26.95 976.29-46.44 M1121.51-198.34L1121.51-152.05L1106.27-152.05L1106.27-128.76L1121.51-128.76L1121.51-37.50Q1121.51-19.48 1132.05-9.96Q1142.31 0 1158.42 0L1174.39 0L1174.39-28.86L1162.96-28.86Q1151.83-28.56 1152.12-40.14L1152.12-128.76L1174.39-128.76L1174.39-152.05L1152.12-152.05L1152.12-198.34"/>
  </g>
  </g>
  <g fill="#9C9B97" font-family="monospace">
    <path transform="translate(232.41 454.33) scale(0.360000)" d="M14.26-18.31L7.57-18.31Q8.20-9.18 14.72-3.86Q21.24 1.46 31.74 1.46Q38.82 1.46 44.09-1.03Q49.37-3.52 52.29-7.98Q55.22-12.45 55.22-18.46Q55.22-26.37 50.68-31.05Q46.14-35.74 35.84-38.43L30.13-39.94Q22.80-41.85 19.48-44.95Q16.16-48.05 16.16-52.98Q16.16-59.03 20.29-62.43Q24.41-65.82 31.74-65.82Q38.38-65.82 42.48-62.50Q46.58-59.18 47.31-53.22L54-53.22Q53.66-58.89 50.78-63.09Q47.90-67.29 43.02-69.60Q38.13-71.92 31.74-71.92Q24.95-71.92 19.92-69.58Q14.89-67.24 12.11-62.99Q9.33-58.74 9.33-52.98Q9.33-45.41 13.89-40.70Q18.46-35.99 28.37-33.40L33.89-31.98Q41.46-30.03 44.92-26.78Q48.39-23.54 48.39-18.46Q48.39-12.21 43.85-8.42Q39.31-4.64 31.74-4.64Q24.37-4.64 19.65-8.30Q14.94-11.96 14.26-18.31 M90.87-66.26L84.47-66.26L84.47-52.59L70.31-52.59L70.31-47.17L84.47-47.17L84.47-15.19Q84.47-10.01 86.57-6.57Q88.67-3.12 92.87-1.42Q97.07 0.29 103.37 0.29Q105.66 0.29 108.69 0.10Q111.72-0.10 112.89-0.29L112.89-5.76Q111.62-5.57 109.03-5.47Q106.45-5.37 103.71-5.37Q97.46-5.37 94.17-7.93Q90.87-10.50 90.87-15.38L90.87-47.17L112.89-47.17L112.89-52.59L90.87-52.59 M154.54 0.88Q161.33 0.88 166.33-1.98Q171.34-4.83 174.07-10.06Q176.81-15.28 176.81-22.36L176.81-30.18Q176.81-37.26 174.07-42.48Q171.34-47.71 166.33-50.56Q161.33-53.42 154.54-53.42Q147.75-53.42 142.75-50.56Q137.74-47.71 135.01-42.48Q132.28-37.26 132.28-30.18L132.28-22.36Q132.28-15.28 135.01-10.06Q137.74-4.83 142.75-1.98Q147.75 0.88 154.54 0.88M154.54-47.71Q161.87-47.71 166.14-42.80Q170.41-37.89 170.41-29.35L170.41-23.19Q170.41-14.65 166.14-9.74Q161.87-4.83 154.54-4.83Q147.22-4.83 142.94-9.74Q138.67-14.65 138.67-23.19L138.67-29.35Q138.67-37.89 142.94-42.80Q147.22-47.71 154.54-47.71 M218.70-53.47Q213.09-53.47 208.96-51.32Q204.83-49.17 202.54-45.02L201.66-45.02L201.66-52.59L195.56-52.59L195.56 17.82L201.95 17.82L201.95-7.76L202.83-7.76Q204.69-3.61 208.84-1.37Q212.99 0.88 218.70 0.88Q224.80 0.88 229.42-1.90Q234.03-4.69 236.62-9.69Q239.21-14.70 239.21-21.24L239.21-31.35Q239.21-37.94 236.62-42.92Q234.03-47.90 229.42-50.68Q224.80-53.47 218.70-53.47M217.29-47.71Q224.37-47.71 228.59-42.82Q232.81-37.94 232.81-29.79L232.81-22.75Q232.81-14.65 228.59-9.74Q224.37-4.83 217.29-4.83Q210.25-4.83 206.03-9.72Q201.81-14.60 201.81-22.75L201.81-29.79Q201.81-37.94 206.03-42.82Q210.25-47.71 217.29-47.71  M338.13-66.26L331.74-66.26L331.74-52.59L317.58-52.59L317.58-47.17L331.74-47.17L331.74-15.19Q331.74-10.01 333.84-6.57Q335.94-3.12 340.14-1.42Q344.34 0.29 350.63 0.29Q352.93 0.29 355.96 0.10Q358.98-0.10 360.16-0.29L360.16-5.76Q358.89-5.57 356.30-5.47Q353.71-5.37 350.98-5.37Q344.73-5.37 341.43-7.93Q338.13-10.50 338.13-15.38L338.13-47.17L360.16-47.17L360.16-52.59L338.13-52.59 M399.32 0L399.32-23.63Q399.32-34.42 404.35-40.82Q409.38-47.22 417.87-47.22Q420.02-47.22 422.36-46.83Q424.71-46.44 426.51-45.75L426.51-52.73Q425.29-53.27 423.22-53.59Q421.14-53.91 418.85-53.91Q411.18-53.91 406.20-50.07Q401.22-46.24 399.85-39.21L399.17-39.21L399.17-52.59L381.01-52.59L381.01-47.41L392.92-47.41L392.92 0L399.32 0M382.08 0L416.02 0L416.02-5.18L382.08-5.18 M484.42 0L484.42-52.59L478.03-52.59L478.03-21.34Q478.03-14.01 473.66-9.45Q469.29-4.88 462.21-4.88Q455.57-4.88 452.39-8.59Q449.22-12.30 449.22-20.02L449.22-52.59L442.82-52.59L442.82-18.41Q442.82-9.03 447.36-4.08Q451.90 0.88 460.50 0.88Q466.60 0.88 471.07-1.81Q475.54-4.49 477.69-9.47L478.32-9.47L478.32 0 M507.08-38.92Q507.08-28.22 521.04-24.95L528.81-23.10Q534.18-21.83 536.47-19.75Q538.77-17.68 538.77-14.06Q538.77-9.77 535.28-7.18Q531.79-4.59 525.88-4.59Q520.41-4.59 516.77-6.86Q513.13-9.13 512.11-13.18L505.47-13.18Q506.20-6.69 511.62-2.91Q517.04 0.88 525.59 0.88Q534.57 0.88 539.99-3.32Q545.41-7.52 545.41-14.45Q545.41-20.02 541.85-23.46Q538.28-26.90 530.71-28.71L523.58-30.37Q518.21-31.64 515.87-33.69Q513.53-35.74 513.53-39.16Q513.53-43.26 516.80-45.70Q520.07-48.14 525.54-48.14Q530.57-48.14 533.94-45.92Q537.30-43.70 538.13-39.84L544.43-39.84Q543.60-46.09 538.53-49.78Q533.45-53.47 525.73-53.47Q517.43-53.47 512.26-49.44Q507.08-45.41 507.08-38.92 M585.40-66.26L579-66.26L579-52.59L564.84-52.59L564.84-47.17L579-47.17L579-15.19Q579-10.01 581.10-6.57Q583.20-3.12 587.40-1.42Q591.60 0.29 597.90 0.29Q600.20 0.29 603.22 0.10Q606.25-0.10 607.42-0.29L607.42-5.76Q606.15-5.57 603.56-5.47Q600.98-5.37 598.24-5.37Q591.99-5.37 588.70-7.93Q585.40-10.50 585.40-15.38L585.40-47.17L607.42-47.17L607.42-52.59L585.40-52.59 M650.05-66.50Q652.54-66.50 654.32-68.29Q656.10-70.07 656.10-72.56Q656.10-75.05 654.32-76.83Q652.54-78.61 650.05-78.61Q647.56-78.61 645.78-76.83Q643.99-75.05 643.99-72.56Q643.99-70.07 645.78-68.29Q647.56-66.50 650.05-66.50M629.05 0L671.97 0L671.97-5.18L653.96-5.18L653.96-52.59L628.96-52.59L628.96-47.41L647.56-47.41L647.56-5.18L629.05-5.18 M690.09-52.59L690.09 0L696.48 0L696.48-31.25Q696.48-38.57 700.85-43.14Q705.22-47.71 712.30-47.71Q718.95-47.71 722.12-43.99Q725.29-40.28 725.29-32.57L725.29 0L731.69 0L731.69-34.18Q731.69-43.55 727.15-48.51Q722.61-53.47 714.01-53.47Q707.91-53.47 703.44-50.78Q698.97-48.10 696.83-43.12L696.19-43.12L696.19-52.59 M755.76-22.75L755.76-29.79Q755.76-37.94 759.99-42.82Q764.21-47.71 771.29-47.71Q778.32-47.71 782.54-42.82Q786.77-37.94 786.77-29.79L786.77-22.75Q786.77-14.60 782.54-9.72Q778.32-4.83 771.29-4.83Q764.21-4.83 759.99-9.74Q755.76-14.65 755.76-22.75M771.14 19.73Q778.08 19.73 782.96 17.38Q787.84 15.04 790.43 10.62Q793.02 6.20 793.02 0L793.02-52.59L786.62-52.59L786.62-44.82L785.74-44.82Q783.89-48.97 779.74-51.22Q775.59-53.47 769.87-53.47Q763.77-53.47 759.16-50.68Q754.54-47.90 751.95-42.92Q749.37-37.94 749.37-31.35L749.37-21.24Q749.37-14.70 751.95-9.69Q754.54-4.69 759.16-1.90Q763.77 0.88 769.87 0.88Q775.54 0.88 779.69-1.34Q783.84-3.56 785.74-7.57L786.62-7.57L786.62-0.34Q786.62 6.59 782.64 10.35Q778.66 14.11 771.24 14.11Q765.63 14.11 761.69 11.91Q757.76 9.72 756.88 6.15L750.49 6.15Q751.37 12.45 756.91 16.09Q762.45 19.73 771.14 19.73  M881.88 18.60Q886.18 18.60 889.09 17.21Q891.99 15.82 894.26 12.33Q896.53 8.84 898.88 2.54L919.34-52.59L912.50-52.59L896.63-6.98L896.04-6.98L880.13-52.59L873.19-52.59L892.92 0.34L891.85 3.61Q889.89 8.84 887.65 10.94Q885.40 13.04 881.79 13.04Q881.20 13.04 880.32 12.99Q879.44 12.94 878.91 12.84L878.91 18.41Q879.54 18.46 880.42 18.53Q881.30 18.60 881.88 18.60 M958.15 0.88Q964.94 0.88 969.95-1.98Q974.95-4.83 977.69-10.06Q980.42-15.28 980.42-22.36L980.42-30.18Q980.42-37.26 977.69-42.48Q974.95-47.71 969.95-50.56Q964.94-53.42 958.15-53.42Q951.37-53.42 946.36-50.56Q941.36-47.71 938.62-42.48Q935.89-37.26 935.89-30.18L935.89-22.36Q935.89-15.28 938.62-10.06Q941.36-4.83 946.36-1.98Q951.37 0.88 958.15 0.88M958.15-47.71Q965.48-47.71 969.75-42.80Q974.02-37.89 974.02-29.35L974.02-23.19Q974.02-14.65 969.75-9.74Q965.48-4.83 958.15-4.83Q950.83-4.83 946.56-9.74Q942.29-14.65 942.29-23.19L942.29-29.35Q942.29-37.89 946.56-42.80Q950.83-47.71 958.15-47.71 M1040.77 0L1040.77-52.59L1034.38-52.59L1034.38-21.34Q1034.38-14.01 1030-9.45Q1025.63-4.88 1018.55-4.88Q1011.91-4.88 1008.74-8.59Q1005.57-12.30 1005.57-20.02L1005.57-52.59L999.17-52.59L999.17-18.41Q999.17-9.03 1003.71-4.08Q1008.25 0.88 1016.85 0.88Q1022.95 0.88 1027.42-1.81Q1031.88-4.49 1034.03-9.47L1034.67-9.47L1034.67 0 M1079.30 0L1079.30-23.63Q1079.30-34.42 1084.33-40.82Q1089.36-47.22 1097.85-47.22Q1100-47.22 1102.34-46.83Q1104.69-46.44 1106.49-45.75L1106.49-52.73Q1105.27-53.27 1103.20-53.59Q1101.12-53.91 1098.83-53.91Q1091.16-53.91 1086.18-50.07Q1081.20-46.24 1079.83-39.21L1079.15-39.21L1079.15-52.59L1060.99-52.59L1060.99-47.41L1072.90-47.41L1072.90 0L1079.30 0M1062.06 0L1096 0L1096-5.18L1062.06-5.18  M1185.74 0L1205.37-61.72L1205.47-61.72L1225.10 0L1231.93 0L1208.69-70.46L1202.15-70.46L1178.91 0L1185.74 0M1219.92-21.58L1218.90-27.34L1192.92-27.34L1191.60-21.58 M1249.76 0L1284.72 0L1284.72-5.76L1270.56-5.76L1270.56-64.70L1284.72-64.70L1284.72-70.46L1249.76-70.46L1249.76-64.70L1263.92-64.70L1263.92-5.76L1249.76-5.76  M1386.23 0.93Q1392.19 0.93 1396.41-1.44Q1400.63-3.81 1402.49-8.25L1403.17-8.25L1403.17 0.05L1409.33 0.05L1409.33-36.08Q1409.33-44.09 1404.37-48.56Q1399.41-53.03 1390.48-53.03Q1385.40-53.03 1381.27-51.29Q1377.15-49.56 1374.54-46.53Q1371.92-43.51 1371.44-39.55L1377.78-39.55Q1378.91-43.36 1382.20-45.41Q1385.50-47.46 1390.48-47.46Q1396.53-47.46 1399.71-44.46Q1402.88-41.46 1402.88-35.79L1402.88-30.81L1387.65-30.13Q1378.96-29.74 1374.19-25.76Q1369.43-21.78 1369.43-14.84Q1369.43-7.71 1374.05-3.39Q1378.66 0.93 1386.23 0.93M1387.79-4.74Q1382.32-4.74 1379.17-7.45Q1376.03-10.16 1376.03-14.84Q1376.03-24.32 1388.09-24.85L1402.88-25.49L1402.88-18.16Q1402.88-14.40 1400.88-11.35Q1398.88-8.30 1395.46-6.52Q1392.04-4.74 1387.79-4.74 M1435.74-22.75L1435.74-29.79Q1435.74-37.94 1439.97-42.82Q1444.19-47.71 1451.27-47.71Q1458.30-47.71 1462.52-42.82Q1466.75-37.94 1466.75-29.79L1466.75-22.75Q1466.75-14.60 1462.52-9.72Q1458.30-4.83 1451.27-4.83Q1444.19-4.83 1439.97-9.74Q1435.74-14.65 1435.74-22.75M1451.12 19.73Q1458.06 19.73 1462.94 17.38Q1467.82 15.04 1470.41 10.62Q1473 6.20 1473 0L1473-52.59L1466.60-52.59L1466.60-44.82L1465.72-44.82Q1463.87-48.97 1459.72-51.22Q1455.57-53.47 1449.85-53.47Q1443.75-53.47 1439.14-50.68Q1434.52-47.90 1431.93-42.92Q1429.35-37.94 1429.35-31.35L1429.35-21.24Q1429.35-14.70 1431.93-9.69Q1434.52-4.69 1439.14-1.90Q1443.75 0.88 1449.85 0.88Q1455.52 0.88 1459.67-1.34Q1463.82-3.56 1465.72-7.57L1466.60-7.57L1466.60-0.34Q1466.60 6.59 1462.62 10.35Q1458.64 14.11 1451.22 14.11Q1445.61 14.11 1441.67 11.91Q1437.74 9.72 1436.87 6.15L1430.47 6.15Q1431.35 12.45 1436.89 16.09Q1442.43 19.73 1451.12 19.73 M1515.04-47.80Q1522.02-47.80 1525.95-43.04Q1529.88-38.28 1529.88-29.88L1499.80-29.88Q1499.80-38.33 1503.86-43.07Q1507.91-47.80 1515.04-47.80M1536.13-12.99L1529.79-12.99Q1528.56-9.13 1524.85-6.98Q1521.14-4.83 1515.77-4.83Q1508.45-4.83 1504.13-9.69Q1499.80-14.55 1499.80-22.80L1499.80-24.61L1536.38-24.61L1536.38-28.76Q1536.38-36.62 1533.86-42.14Q1531.35-47.66 1526.59-50.56Q1521.83-53.47 1515.04-53.47Q1508.54-53.47 1503.66-50.61Q1498.78-47.75 1496.09-42.60Q1493.41-37.45 1493.41-30.52L1493.41-22.85Q1493.41-11.62 1499.29-5.37Q1505.18 0.88 1515.77 0.88Q1521.09 0.88 1525.37-0.83Q1529.64-2.54 1532.45-5.66Q1535.25-8.79 1536.13-12.99 M1555.52-52.59L1555.52 0L1561.91 0L1561.91-31.25Q1561.91-38.57 1566.28-43.14Q1570.65-47.71 1577.73-47.71Q1584.38-47.71 1587.55-43.99Q1590.72-40.28 1590.72-32.57L1590.72 0L1597.12 0L1597.12-34.18Q1597.12-43.55 1592.58-48.51Q1588.04-53.47 1579.44-53.47Q1573.34-53.47 1568.87-50.78Q1564.40-48.10 1562.26-43.12L1561.62-43.12L1561.62-52.59 M1636.28-66.26L1629.88-66.26L1629.88-52.59L1615.72-52.59L1615.72-47.17L1629.88-47.17L1629.88-15.19Q1629.88-10.01 1631.98-6.57Q1634.08-3.12 1638.28-1.42Q1642.48 0.29 1648.78 0.29Q1651.07 0.29 1654.10 0.10Q1657.13-0.10 1658.30-0.29L1658.30-5.76Q1657.03-5.57 1654.44-5.47Q1651.86-5.37 1649.12-5.37Q1642.87-5.37 1639.58-7.93Q1636.28-10.50 1636.28-15.38L1636.28-47.17L1658.30-47.17L1658.30-52.59L1636.28-52.59 M1681.59-38.92Q1681.59-28.22 1695.56-24.95L1703.32-23.10Q1708.69-21.83 1710.99-19.75Q1713.28-17.68 1713.28-14.06Q1713.28-9.77 1709.79-7.18Q1706.30-4.59 1700.39-4.59Q1694.92-4.59 1691.28-6.86Q1687.65-9.13 1686.62-13.18L1679.98-13.18Q1680.71-6.69 1686.13-2.91Q1691.55 0.88 1700.10 0.88Q1709.08 0.88 1714.50-3.32Q1719.92-7.52 1719.92-14.45Q1719.92-20.02 1716.36-23.46Q1712.79-26.90 1705.22-28.71L1698.10-30.37Q1692.72-31.64 1690.38-33.69Q1688.04-35.74 1688.04-39.16Q1688.04-43.26 1691.31-45.70Q1694.58-48.14 1700.05-48.14Q1705.08-48.14 1708.45-45.92Q1711.82-43.70 1712.65-39.84L1718.95-39.84Q1718.12-46.09 1713.04-49.78Q1707.96-53.47 1700.24-53.47Q1691.94-53.47 1686.77-49.44Q1681.59-45.41 1681.59-38.92  M1825.93 0.88Q1832.03 0.88 1836.65-1.90Q1841.26-4.69 1843.85-9.69Q1846.44-14.70 1846.44-21.24L1846.44-31.35Q1846.44-37.94 1843.85-42.92Q1841.26-47.90 1836.65-50.68Q1832.03-53.47 1825.93-53.47Q1820.21-53.47 1816.06-51.22Q1811.91-48.97 1810.06-44.82L1809.18-44.82L1809.18-73.54L1802.78-73.54L1802.78 0L1808.89 0L1808.89-7.57L1809.77-7.57Q1812.06-3.42 1816.19-1.27Q1820.31 0.88 1825.93 0.88M1824.51-4.83Q1817.48-4.83 1813.26-9.72Q1809.03-14.60 1809.03-22.75L1809.03-29.79Q1809.03-37.94 1813.26-42.82Q1817.48-47.71 1824.51-47.71Q1831.59-47.71 1835.82-42.82Q1840.04-37.94 1840.04-29.79L1840.04-22.75Q1840.04-14.65 1835.82-9.74Q1831.59-4.83 1824.51-4.83 M1865.38 0L1908.30 0L1908.30-5.18L1890.28-5.18L1890.28-73.54L1865.28-73.54L1865.28-68.36L1883.89-68.36L1883.89-5.18L1865.38-5.18 M1948.19-66.50Q1950.68-66.50 1952.47-68.29Q1954.25-70.07 1954.25-72.56Q1954.25-75.05 1952.47-76.83Q1950.68-78.61 1948.19-78.61Q1945.70-78.61 1943.92-76.83Q1942.14-75.05 1942.14-72.56Q1942.14-70.07 1943.92-68.29Q1945.70-66.50 1948.19-66.50M1927.20 0L1970.12 0L1970.12-5.18L1952.10-5.18L1952.10-52.59L1927.10-52.59L1927.10-47.41L1945.70-47.41L1945.70-5.18L1927.20-5.18 M1988.23-52.59L1988.23 0L1994.63 0L1994.63-31.25Q1994.63-38.57 1999-43.14Q2003.37-47.71 2010.45-47.71Q2017.09-47.71 2020.26-43.99Q2023.44-40.28 2023.44-32.57L2023.44 0L2029.83 0L2029.83-34.18Q2029.83-43.55 2025.29-48.51Q2020.75-53.47 2012.16-53.47Q2006.05-53.47 2001.59-50.78Q1997.12-48.10 1994.97-43.12L1994.34-43.12L1994.34-52.59 M2068.51 0.88Q2062.40 0.88 2057.79-1.90Q2053.17-4.69 2050.59-9.69Q2048-14.70 2048-21.24L2048-31.35Q2048-37.94 2050.59-42.92Q2053.17-47.90 2057.79-50.68Q2062.40-53.47 2068.51-53.47Q2074.22-53.47 2078.37-51.22Q2082.52-48.97 2084.38-44.82L2085.25-44.82L2085.25-73.54L2091.65-73.54L2091.65 0L2085.55 0L2085.55-7.57L2084.67-7.57Q2082.37-3.42 2078.25-1.27Q2074.12 0.88 2068.51 0.88M2069.92-4.83Q2076.95-4.83 2081.18-9.72Q2085.40-14.60 2085.40-22.75L2085.40-29.79Q2085.40-37.94 2081.18-42.82Q2076.95-47.71 2069.92-47.71Q2062.84-47.71 2058.62-42.82Q2054.39-37.94 2054.39-29.79L2054.39-22.75Q2054.39-14.65 2058.62-9.74Q2062.84-4.83 2069.92-4.83 M2112.65 0L2155.57 0L2155.57-5.18L2137.55-5.18L2137.55-73.54L2112.55-73.54L2112.55-68.36L2131.15-68.36L2131.15-5.18L2112.65-5.18 M2180.03 18.60Q2184.33 18.60 2187.23 17.21Q2190.14 15.82 2192.41 12.33Q2194.68 8.84 2197.02 2.54L2217.48-52.59L2210.64-52.59L2194.78-6.98L2194.19-6.98L2178.27-52.59L2171.34-52.59L2191.06 0.34L2189.99 3.61Q2188.04 8.84 2185.79 10.94Q2183.54 13.04 2179.93 13.04Q2179.35 13.04 2178.47 12.99Q2177.59 12.94 2177.05 12.84L2177.05 18.41Q2177.69 18.46 2178.56 18.53Q2179.44 18.60 2180.03 18.60 M2256.30 0Q2258.54 0 2260.38-1.10Q2262.21-2.20 2263.31-4.03Q2264.40-5.86 2264.40-8.11Q2264.40-10.35 2263.31-12.18Q2262.21-14.01 2260.38-15.11Q2258.54-16.21 2256.30-16.21Q2254.10-16.21 2252.25-15.11Q2250.39-14.01 2249.29-12.18Q2248.19-10.35 2248.19-8.11Q2248.19-5.86 2249.29-4.03Q2250.39-2.20 2252.25-1.10Q2254.10 0 2256.30 0"/>
    <path transform="translate(443.82 508.33) scale(0.360000)" d="M27.59 0L34.23 0L34.23-64.40L55.91-64.40L55.91-70.46L5.91-70.46L5.91-64.40L27.59-64.40 M88.09 0.93Q94.04 0.93 98.27-1.44Q102.49-3.81 104.35-8.25L105.03-8.25L105.03 0.05L111.18 0.05L111.18-36.08Q111.18-44.09 106.23-48.56Q101.27-53.03 92.33-53.03Q87.26-53.03 83.13-51.29Q79-49.56 76.39-46.53Q73.78-43.51 73.29-39.55L79.64-39.55Q80.76-43.36 84.06-45.41Q87.35-47.46 92.33-47.46Q98.39-47.46 101.56-44.46Q104.74-41.46 104.74-35.79L104.74-30.81L89.50-30.13Q80.81-29.74 76.05-25.76Q71.29-21.78 71.29-14.84Q71.29-7.71 75.90-3.39Q80.52 0.93 88.09 0.93M89.65-4.74Q84.18-4.74 81.03-7.45Q77.88-10.16 77.88-14.84Q77.88-24.32 89.94-24.85L104.74-25.49L104.74-18.16Q104.74-14.40 102.73-11.35Q100.73-8.30 97.31-6.52Q93.90-4.74 89.65-4.74 M169.73-52.59L145.02-27.83L144.43-27.83L144.43-73.54L138.04-73.54L138.04 0L144.43 0L144.43-19.92L153.76-29L155.32-30.52L177.83-52.59L169.73-52.59M156.20-33.45L151.56-29.30L171.58 0L179.30 0 M216.89-47.80Q223.88-47.80 227.81-43.04Q231.74-38.28 231.74-29.88L201.66-29.88Q201.66-38.33 205.71-43.07Q209.77-47.80 216.89-47.80M237.99-12.99L231.64-12.99Q230.42-9.13 226.71-6.98Q223-4.83 217.63-4.83Q210.30-4.83 205.98-9.69Q201.66-14.55 201.66-22.80L201.66-24.61L238.23-24.61L238.23-28.76Q238.23-36.62 235.72-42.14Q233.20-47.66 228.44-50.56Q223.68-53.47 216.89-53.47Q210.40-53.47 205.52-50.61Q200.63-47.75 197.95-42.60Q195.26-37.45 195.26-30.52L195.26-22.85Q195.26-11.62 201.15-5.37Q207.03 0.88 217.63 0.88Q222.95 0.88 227.22-0.83Q231.49-2.54 234.30-5.66Q237.11-8.79 237.99-12.99  M342.33 0.88Q348.44 0.88 353.05-1.90Q357.67-4.69 360.25-9.69Q362.84-14.70 362.84-21.24L362.84-31.35Q362.84-37.94 360.25-42.92Q357.67-47.90 353.05-50.68Q348.44-53.47 342.33-53.47Q336.62-53.47 332.47-51.22Q328.32-48.97 326.46-44.82L325.59-44.82L325.59-73.54L319.19-73.54L319.19 0L325.29 0L325.29-7.57L326.17-7.57Q328.47-3.42 332.59-1.27Q336.72 0.88 342.33 0.88M340.92-4.83Q333.89-4.83 329.66-9.72Q325.44-14.60 325.44-22.75L325.44-29.79Q325.44-37.94 329.66-42.82Q333.89-47.71 340.92-47.71Q348-47.71 352.22-42.82Q356.45-37.94 356.45-29.79L356.45-22.75Q356.45-14.65 352.22-9.74Q348-4.83 340.92-4.83 M397.17 0.93Q403.13 0.93 407.35-1.44Q411.57-3.81 413.43-8.25L414.11-8.25L414.11 0.05L420.26 0.05L420.26-36.08Q420.26-44.09 415.31-48.56Q410.35-53.03 401.42-53.03Q396.34-53.03 392.21-51.29Q388.09-49.56 385.47-46.53Q382.86-43.51 382.37-39.55L388.72-39.55Q389.84-43.36 393.14-45.41Q396.44-47.46 401.42-47.46Q407.47-47.46 410.64-44.46Q413.82-41.46 413.82-35.79L413.82-30.81L398.58-30.13Q389.89-29.74 385.13-25.76Q380.37-21.78 380.37-14.84Q380.37-7.71 384.99-3.39Q389.60 0.93 397.17 0.93M398.73-4.74Q393.26-4.74 390.11-7.45Q386.96-10.16 386.96-14.84Q386.96-24.32 399.02-24.85L413.82-25.49L413.82-18.16Q413.82-14.40 411.82-11.35Q409.81-8.30 406.40-6.52Q402.98-4.74 398.73-4.74 M478.47-37.11L484.81-37.11Q483.79-44.53 478.25-49Q472.71-53.47 464.55-53.47Q454.20-53.47 448.32-47.24Q442.43-41.02 442.43-30.03L442.43-22.56Q442.43-11.57 448.32-5.35Q454.20 0.88 464.55 0.88Q472.71 0.88 478.25-3.61Q483.79-8.11 484.81-15.48L478.47-15.48Q477.69-10.79 473.73-7.84Q469.78-4.88 464.40-4.88Q456.88-4.88 452.86-9.74Q448.83-14.60 448.83-23.63L448.83-28.96Q448.83-37.99 452.86-42.85Q456.88-47.71 464.40-47.71Q469.78-47.71 473.73-44.75Q477.69-41.80 478.47-37.11 M540.63-52.59L515.92-27.83L515.33-27.83L515.33-73.54L508.94-73.54L508.94 0L515.33 0L515.33-19.92L524.66-29L526.22-30.52L548.73-52.59L540.63-52.59M527.10-33.45L522.46-29.30L542.48 0L550.20 0  M663.92-37.11L670.26-37.11Q669.24-44.53 663.70-49Q658.15-53.47 650-53.47Q639.65-53.47 633.76-47.24Q627.88-41.02 627.88-30.03L627.88-22.56Q627.88-11.57 633.76-5.35Q639.65 0.88 650 0.88Q658.15 0.88 663.70-3.61Q669.24-8.11 670.26-15.48L663.92-15.48Q663.13-10.79 659.18-7.84Q655.22-4.88 649.85-4.88Q642.33-4.88 638.31-9.74Q634.28-14.60 634.28-23.63L634.28-28.96Q634.28-37.99 638.31-42.85Q642.33-47.71 649.85-47.71Q655.22-47.71 659.18-44.75Q663.13-41.80 663.92-37.11 M710.89 0.88Q717.68 0.88 722.68-1.98Q727.69-4.83 730.42-10.06Q733.15-15.28 733.15-22.36L733.15-30.18Q733.15-37.26 730.42-42.48Q727.69-47.71 722.68-50.56Q717.68-53.42 710.89-53.42Q704.10-53.42 699.10-50.56Q694.09-47.71 691.36-42.48Q688.62-37.26 688.62-30.18L688.62-22.36Q688.62-15.28 691.36-10.06Q694.09-4.83 699.10-1.98Q704.10 0.88 710.89 0.88M710.89-47.71Q718.21-47.71 722.49-42.80Q726.76-37.89 726.76-29.35L726.76-23.19Q726.76-14.65 722.49-9.74Q718.21-4.83 710.89-4.83Q703.56-4.83 699.29-9.74Q695.02-14.65 695.02-23.19L695.02-29.35Q695.02-37.89 699.29-42.80Q703.56-47.71 710.89-47.71 M751.90-52.59L751.90 0L758.30 0L758.30-31.25Q758.30-38.57 762.67-43.14Q767.04-47.71 774.12-47.71Q780.76-47.71 783.94-43.99Q787.11-40.28 787.11-32.57L787.11 0L793.51 0L793.51-34.18Q793.51-43.55 788.96-48.51Q784.42-53.47 775.83-53.47Q769.73-53.47 765.26-50.78Q760.79-48.10 758.64-43.12L758.01-43.12L758.01-52.59 M832.67-66.26L826.27-66.26L826.27-52.59L812.11-52.59L812.11-47.17L826.27-47.17L826.27-15.19Q826.27-10.01 828.37-6.57Q830.47-3.12 834.67-1.42Q838.87 0.29 845.17 0.29Q847.46 0.29 850.49 0.10Q853.52-0.10 854.69-0.29L854.69-5.76Q853.42-5.57 850.83-5.47Q848.24-5.37 845.51-5.37Q839.26-5.37 835.96-7.93Q832.67-10.50 832.67-15.38L832.67-47.17L854.69-47.17L854.69-52.59L832.67-52.59 M893.85 0L893.85-23.63Q893.85-34.42 898.88-40.82Q903.91-47.22 912.40-47.22Q914.55-47.22 916.89-46.83Q919.24-46.44 921.04-45.75L921.04-52.73Q919.82-53.27 917.75-53.59Q915.67-53.91 913.38-53.91Q905.71-53.91 900.73-50.07Q895.75-46.24 894.38-39.21L893.70-39.21L893.70-52.59L875.54-52.59L875.54-47.41L887.45-47.41L887.45 0L893.85 0M876.61 0L910.55 0L910.55-5.18L876.61-5.18 M958.15 0.88Q964.94 0.88 969.95-1.98Q974.95-4.83 977.69-10.06Q980.42-15.28 980.42-22.36L980.42-30.18Q980.42-37.26 977.69-42.48Q974.95-47.71 969.95-50.56Q964.94-53.42 958.15-53.42Q951.37-53.42 946.36-50.56Q941.36-47.71 938.62-42.48Q935.89-37.26 935.89-30.18L935.89-22.36Q935.89-15.28 938.62-10.06Q941.36-4.83 946.36-1.98Q951.37 0.88 958.15 0.88M958.15-47.71Q965.48-47.71 969.75-42.80Q974.02-37.89 974.02-29.35L974.02-23.19Q974.02-14.65 969.75-9.74Q965.48-4.83 958.15-4.83Q950.83-4.83 946.56-9.74Q942.29-14.65 942.29-23.19L942.29-29.35Q942.29-37.89 946.56-42.80Q950.83-47.71 958.15-47.71 M999.95 0L1042.87 0L1042.87-5.18L1024.85-5.18L1024.85-73.54L999.85-73.54L999.85-68.36L1018.46-68.36L1018.46-5.18L999.95-5.18 M1081.79 0Q1084.03 0 1085.86-1.10Q1087.70-2.20 1088.79-4.03Q1089.89-5.86 1089.89-8.11Q1089.89-10.35 1088.79-12.18Q1087.70-14.01 1085.86-15.11Q1084.03-16.21 1081.79-16.21Q1079.59-16.21 1077.73-15.11Q1075.88-14.01 1074.78-12.18Q1073.68-10.35 1073.68-8.11Q1073.68-5.86 1074.78-4.03Q1075.88-2.20 1077.73-1.10Q1079.59 0 1081.79 0"/>
  </g>
</svg>
